<svg width="28" height="16" viewBox="0 0 28 16" fill="none" xmlns="http://www.w3.org/2000/svg">
<path d="M26.9585 9.04034H1.04132C0.46625 9.04034 0 8.5746 0 8.00015C0 7.42571 0.46625 6.95996 1.04132 6.95996H26.9585C27.5335 6.95996 27.9998 7.42571 27.9998 8.00015C27.9998 8.5746 27.5335 9.04034 26.9585 9.04034Z" fill="#21062E"/>
<path d="M18.3213 16C18.0173 16 17.7159 15.8676 17.5101 15.6128C17.1491 15.1657 17.2193 14.5108 17.6669 14.1501L25.3 7.99999L17.6669 1.84987C17.2193 1.48918 17.1491 0.834293 17.5101 0.387185C17.8712 -0.0600101 18.5268 -0.130049 18.9744 0.23055L27.6124 7.19029C27.8574 7.38775 27.9999 7.68542 27.9999 7.9999C27.9999 8.31438 27.8574 8.61205 27.6124 8.80951L18.9744 15.7693C18.7819 15.9245 18.5508 15.9999 18.3213 16V16Z" fill="#21062E"/>
</svg>
