<svg width="22" height="18" viewBox="0 0 22 18" fill="none" xmlns="http://www.w3.org/2000/svg">
<path d="M16.75 17.75H4.75C4.28603 17.7495 3.84122 17.5649 3.51315 17.2369C3.18507 16.9088 3.00053 16.464 3 16V7.75002H1.75C1.28603 7.74949 0.841222 7.56495 0.513148 7.23688C0.185074 6.9088 0.00052934 6.46399 0 6.00002V2.00002C0.00052934 1.53606 0.185074 1.09125 0.513148 0.763171C0.841222 0.435097 1.28603 0.250553 1.75 0.250023H6.879C7.27212 0.254471 7.65259 0.389523 7.96053 0.633922C8.26848 0.878321 8.4864 1.21819 8.58 1.60002C8.71195 2.074 8.99549 2.49172 9.38726 2.78933C9.77904 3.08694 10.2575 3.24806 10.7495 3.24806C11.2415 3.24806 11.72 3.08694 12.1117 2.78933C12.5035 2.49172 12.7871 2.074 12.919 1.60002C13.0128 1.21842 13.2307 0.878737 13.5383 0.634242C13.846 0.389747 14.2261 0.25426 14.619 0.249023H19.75C20.2141 0.249553 20.6591 0.434235 20.9872 0.762525C21.3153 1.09082 21.4997 1.53588 21.5 2.00002V6.00002C21.4995 6.46399 21.3149 6.9088 20.9869 7.23688C20.6588 7.56495 20.214 7.74949 19.75 7.75002H18.5V16C18.4995 16.464 18.3149 16.9088 17.9869 17.2369C17.6588 17.5649 17.214 17.7495 16.75 17.75ZM1.92678 1.99908C1.86047 1.99908 1.79688 2.02542 1.75 2.0723C1.70312 2.11919 1.67678 2.18278 1.67678 2.24908V5.82322C1.67678 5.88953 1.70312 5.95312 1.75 6C1.79688 6.04688 1.86047 6.07322 1.92678 6.07322H4C4.19891 6.07322 4.38968 6.15224 4.53033 6.29289C4.67098 6.43355 4.75 6.62431 4.75 6.82322V15.8232C4.75 15.8895 4.77634 15.9531 4.82322 16C4.87011 16.0469 4.9337 16.0732 5 16.0732H16.5732C16.6395 16.0732 16.7031 16.0469 16.75 16C16.7969 15.9531 16.8232 15.8895 16.8232 15.8232V6.82322C16.8232 6.62431 16.9022 6.43355 17.0429 6.29289C17.1835 6.15224 17.3743 6.07322 17.5732 6.07322H19.75C19.8163 6.07322 19.8799 6.04688 19.9268 6C19.9737 5.95312 20 5.88953 20 5.82322V2.24908C20 2.18278 19.9737 2.11919 19.9268 2.0723C19.8799 2.02542 19.8163 1.99908 19.75 1.99908H14.621C14.483 1.99908 14.397 2.13308 14.365 2.24708C14.1466 3.0382 13.6748 3.73588 13.0219 4.23313C12.369 4.73038 11.571 4.99977 10.7503 5C9.92955 5.00023 9.13141 4.73128 8.47822 4.23439C7.82502 3.73749 7.35282 3.04008 7.134 2.24908C7.103 2.13508 7.017 2.00208 6.879 2.00208L1.92678 1.99908Z" fill="#21062E"/>
</svg>
